<?xml version="1.0" encoding="UTF-8"?>
<svg id="Layer_2" data-name="Layer 2" xmlns="http://www.w3.org/2000/svg" viewBox="0 0 62.18 63.86">
  <defs>
    <style>
      .cls-1 {
        fill: #0061a8;
      }
    </style>
  </defs>
  <g id="Laag_1" data-name="Laag 1">
    <path class="cls-1" d="M48.84,46.94c.52-.21,1.52-.29,1.82-.45.1-.05.15-.38.25-.45.54-.39.87-.35,1.21-.82.73-.99.16-1.42.34-2.6.11-.71.73-1.37.54-2.05-.24-.84-1.67-1.35-2.96-1.17-.67.09-1.36.6-2.21.91-.82.3-1.75.46-2.5.79-2.51,1.1-4.95,2.25-7.34,1.07-1.43.67-2.81.26-4.59-.17-1.95-.47-3.16-.69-3.89-1.95-1.63-.3-4.43-1.68-5.56.2.25,1.86,1.06,3.84,2.28,4.8.51.4,2.3,1.35,2.84,1.47,1.23.26,2.74-.37,3.77.67.58,2.73-.77,4.78-1.09,7.1-.1.76.06,1.83-.04,2.86-.06.7-.41,1.54-.24,2.16.33,1.19,2.15,1.54,4.04,2.08.75.21,1.59.43,2.34.65,2.43.72,4.15.05,3.5-2.45.31-.44.58-.85.74-1.35.18-.58.05-1.14.13-1.73.22-1.46.81-3.06,1.33-4.4.57-1.48.99-3,1.78-4.16,1.7.08,2.35-.57,3.48-1.02M42.84,38.89c.42-.64,1.03-.7,1-1.66-.02-.57-.57-1.01-.7-1.51-.21-.77.04-1.61-.2-2.27-.2-.54-.83-1.33-1.28-1.6-1.79-1.05-5.5,1.04-6.09,2.25-.19.38,0,1.15-.26,1.88-.11.31-.43.44-.52.62-1.19,2.23,3.24,4.62,5.03,3.56.55.28,1.16.49,2.04.39.66-.42.62-1.09,1-1.66M48.39,33.69c.05.88.56,2.21,1.25,2.89.7.69,3.24,1.74,4.42,1.47,1.83-.41,2.58-3.73,1.49-5.85-.45-.87-1.27-1.22-1.73-1.85-3.63-.72-5.56.87-5.42,3.33M55.69,28.91c1.46-.5,1.58-3.77,1.76-6.01.17-2.15.19-3.64.25-5.31.03-.67-.07-1.29-.03-2,.05-.95.69-2.43.01-3.14-.29-.31-.56-.15-1.31-.31-.45-.1-.8-.35-1.18-.47-.92-.27-1.92-.26-2.76-.47-1.29-.33-2.43-1.23-3.41-1.42-.63-.12-1.26.09-1.86.02-1.46-.16-3-.55-4.52-1.03-1.46-.47-3.02-.76-4.53-1.18-2.92-.8-5.86-1.82-8.79-2.52-2.98-.71-5.94-1.48-8.92-2.36-2.53-.75-6.68-1.66-9.7-1.44-1.75.13-1.17,3.12-1.44,4.7-.34,1.93-1.53,3.95-1.93,5.74-.15.69-.07,1.54-.23,2.31-.32,1.55-.52,2.98-.74,4.64-.1.74-.45,1.48-.52,2.19-.05.45.15.94.12,1.42-.06,1.16-.52,2.39-.55,3.48-.02.69.25,1.46.19,2.13-.09,1-1.2,2.19-.54,3.62-.96,1.5-1.23,4.19-1.18,6.1-.84.93-.6,2.19-.81,3.79-.19,1.43-.9,3-.34,4.32-.69,1.15-.58,2.68-1.02,4.66-.3,1.35-.61,2.68.41,3.11.82.34,1.51-.48,2.53-.51,1.44-.04,3.04,1.48,4.62,2.17,1.29.56,2.88.91,4.41,1.47,2.96,1.08,6.02,1.8,9.22,2.48,1.72.37,3.48.82,5.05.56.82-.31.25-1.2.41-1.89.12-.56.62-1.08.71-1.63.17-1.02.19-2.63-.14-3.27-.25-.49-.55-.53-1.08-.91-.34-.24-.88-.79-1.08-.91-.85-.5-2.04-.64-2.82-1.18-.93-.64-1.71-1.96-2.24-2.8-.7-1.1-1.1-2.16-1.99-3.11.16-.95-.65-1.55-.92-2.35-.15-.43,0-.98-.12-1.42-.13-.47-.52-.89-.69-1.37-.7-1.93-1.47-4.69-1.43-6.59.02-1.24.68-2.1.86-3.22.33-2.01-.03-3.98.79-5.64.62-1.25,2.07-2.53,3.12-3.56,1.06-1.04,2.25-2.48,3.58-3.17,2.43-1.27,7.12-2.02,10.29-1.62,1.74.22,3.2.76,5.25,1.25,1.62.39,4.09.78,5.01,1.71.51.51.72,1.42,1.19,2.18.44.7,1.1,1.37,1.46,2.02.53.95,1.02,2.28,1.26,3.03.4,1.21.79,2.46,1.85,3.12,1.71-.16,2.74,1.2,4.48.61M52.71,1.45c.57.91-.29,1.67-.2,2.59.07.75.76,1.35.91,2.21.2,1.16-.42,2.2.16,3.42,1.76,1.48,4.95.24,5.69,2.93.23.85-.21,2.1-.28,3.31-.03.55.15,1.07.15,1.7,0,1.51-.12,3.52-.25,5.31-.23,3.17-.51,5.68-2.24,7.06-.19,1.19,1.06,2.34,1.33,3.74.16.83-.1,1.78.08,2.56.18.8.8,1.43.9,2.07.12.8-.32,1.46-.2,2.59.09.89.74,1.64.92,2.35.19.75.09,2.01.26,2.98.26,1.49,1,3.15,1.28,4.89.15.88.1,1.86.24,2.69.25,1.53,1.01,3.23.64,4.09-.58,1.34-3.42.71-5.08.73-4.26.04-9.29,1.65-14,1.65-.22,1.81-1.03,3.23-2.55,3.51-1.2.22-2.47-.49-4.08-.93-1.45-.4-3.1-.54-4.08-.93-.73-.29-1.16-1.01-1.67-1.14-1.97-.62-3.25.98-5.19,1.17-1.63.16-3.33-.64-5.04-.42-.94.12-1.81.79-2.77.96-1.9.33-3.91-.37-5.88-.2-2.21.19-4.26,1.9-6.1.53.16-2.62.38-5.2-.01-8.29-1.4-.62-1.87.52-3.25.43-.9-.06-2.1-1.15-2.32-2.08-.34-1.39.84-5.24,1.07-7.38.09-.88-.03-1.8.06-2.58.08-.69.49-1.32.55-1.91.16-1.68-.2-2.86.81-3.79-.36-1.87.57-3.4.68-5.34.16-2.86-.83-5.91-.91-8.78-.02-.82.33-1.54.37-2.32.04-.8-.07-1.65-.21-2.41-.18-.98-.71-1.89-.83-2.93-.09-.81.26-1.53.23-2.31-.04-.99-.81-1.93-.25-2.84,1.17-.82,3.14-.16,4.81-.56.49-.57.6-1.34.82-2.07.2-.66.55-1.37.68-2.06.41-2.27-.34-4.97,2.22-5.62.04,0,.1,0,.14-.01,4.13-.17,8.12.91,12.33,2.07,4.1,1.12,8.21,1.84,11.41,3,1.41-1.1,3.37-.54,5.07-.87.98-.19,1.7-.94,2.62-1.09.9-.14,1.86.27,2.73.19.74-.07,1.51-.58,2.36-.78.95-.22,2-.17,2.82-.39.99-.27,1.94-1.11,3.08-.7"/>
  </g>
</svg>